# xmcd
#
# Track frame offsets: 
#        150
#        17276
#        37515
#        50374
#        68650
#        89242
#        103513
#        120555
#        137269
#        153760
#
# Disc length: 2363 seconds
#
# Revision: 0
# Processed by: cddbd v1.5.2PL0 Copyright (c) Steve Scherf et al.
# Submitted via: ExactAudioCopy v1.3
#
DISCID=6909390a
DTITLE=Tracy Byrd - All American Texan
DYEAR=2016
DGENRE=Country
TTITLE0=All American Texan
TTITLE1=Before I Die
TTITLE2=Texas Truck
TTITLE3=Roll With It
TTITLE4=Don't Call Me Momma
TTITLE5=Don't Be In A Hurry
TTITLE6=Only Jesus
TTITLE7=Shame To Grace
TTITLE8=It's About The Pain
TTITLE9=Take It To The Bank
EXTD=
EXTT0=
EXTT1=
EXTT2=
EXTT3=
EXTT4=
EXTT5=
EXTT6=
EXTT7=
EXTT8=
EXTT9=
PLAYORDER=
